<svg xmlns="http://www.w3.org/2000/svg" width="800" height="500" viewBox="0 0 800 500"><defs><linearGradient id="g" x1="0" y1="0" x2="1" y2="1"><stop stop-color="#0b1220"/><stop offset="1" stop-color="#312e81"/></linearGradient><linearGradient id="a"><stop stop-color="#22d3ee"/><stop offset="1" stop-color="#a855f7"/></linearGradient></defs><rect width="800" height="500" rx="28" fill="url(#g)"/><text x="400" y="110" font-family="Arial,sans-serif" font-size="46" font-weight="700" text-anchor="middle" fill="white">MEMORY GAME</text><g fill="url(#a)" stroke="#ffffff44" stroke-width="3"><rect x="200" y="155" width="100" height="100" rx="16"/><rect x="320" y="155" width="100" height="100" rx="16"/><rect x="440" y="155" width="100" height="100" rx="16"/><rect x="560" y="155" width="70" height="100" rx="16"/><rect x="260" y="275" width="100" height="100" rx="16"/><rect x="380" y="275" width="100" height="100" rx="16"/><rect x="500" y="275" width="100" height="100" rx="16"/></g><g font-family="Arial,sans-serif" font-size="42" text-anchor="middle" fill="white"><text x="250" y="220">?</text><text x="370" y="220">🎮</text><text x="490" y="220">?</text><text x="595" y="220">?</text><text x="310" y="340">🚀</text><text x="430" y="340">?</text><text x="550" y="340">💎</text></g><text x="400" y="440" font-family="Arial,sans-serif" font-size="22" text-anchor="middle" fill="#67e8f9">HTML · CSS · JavaScript</text></svg>